<svg viewBox="0 0 512 512" xmlns="http://www.w3.org/2000/svg" fill="currentColor" aria-hidden="true">
  <!-- Side ticks (1,2,4,5) - transparent fills so they appear as cutouts -->
  <g id="ticks-side">
    <path fill="none"
      d="M76.8,294.4H51.2c-7.074,0-12.8,5.726-12.8,12.8S44.126,320,51.2,320h25.6c7.074,0,12.8-5.726,12.8-12.8
      S83.874,294.4,76.8,294.4z" />
    <path fill="none"
      d="M138.342,171.426l-18.099-18.099c-5.001-5.001-13.099-5.001-18.099,0c-5.001,5-5.001,13.099,0,18.099l18.099,18.099
      c2.492,2.5,5.768,3.746,9.045,3.746c3.277,0,6.554-1.246,9.054-3.746C143.343,184.525,143.343,176.427,138.342,171.426z" />
    <path fill="none"
      d="M409.873,153.327c-5.001-5.001-13.107-5.001-18.108,0l-18.099,18.099c-5,5.001-5,13.099,0,18.099
      c2.5,2.5,5.777,3.746,9.054,3.746c3.277,0,6.554-1.246,9.054-3.746l18.099-18.099
      C414.874,166.426,414.874,158.327,409.873,153.327z" />
    <path fill="none"
      d="M460.8,294.4h-25.6c-7.074,0-12.8,5.726-12.8,12.8s5.726,12.8,12.8,12.8h25.6c7.074,0,12.8-5.726,12.8-12.8
      S467.874,294.4,460.8,294.4z" />
  </g>
</svg>